# xmcd
#
# Track frame offsets:
#	150
#	20102
#	34431
#	47703
#	70135
#	96218
#	120706
#	144862
#	161845
#	181845
#	201112
#	220376
#	235276
#
# Disc length: 3278 seconds
#
# Revision: 1
# Processed by: cddbd v1.5.2PL0 Copyright (c) Steve Scherf et al.
# Submitted via: audiograbber 1.83.01
#
DISCID=bf0ccc0d
DTITLE=Dynamite Daze - Greatest Hits
DYEAR=2010
DGENRE=
TTITLE0=Lady Godiva Ride
TTITLE1=In My Car
TTITLE2=Take Care For Sure
TTITLE3=Who The Hell Needs Love
TTITLE4=Pill Poppin Son Of A Bitch
TTITLE5=Professor Blues
TTITLE6=Back In Town
TTITLE7=Second Hand Love
TTITLE8=Bop Till I Drop
TTITLE9=Zig Zag Woman
TTITLE10=Red Light Lady
TTITLE11=Tired Of This
TTITLE12=I Only Want To See You Smile
EXTD=
EXTT0=
EXTT1=
EXTT2=
EXTT3=
EXTT4=
EXTT5=
EXTT6=
EXTT7=
EXTT8=
EXTT9=
EXTT10=
EXTT11=
EXTT12=
PLAYORDER=
